<svg width="24" height="23" viewBox="0 0 24 23" fill="none" xmlns="http://www.w3.org/2000/svg">
<path d="M12 0C9.856 0 8.116 1.72 8.03 3.844C6.23731 4.61001 4.70966 5.88662 3.63741 7.51474C2.56515 9.14286 1.9957 11.0505 2 13C2 13.17 1.992 13.36 2 13.563C0.815 14.259 0 15.535 0 17C0 19.197 1.803 21 4 21C4.575 21 5.13 20.878 5.625 20.656C7.358 22.112 9.618 23 12 23C14.382 23 16.642 22.112 18.375 20.656C18.8864 20.8837 19.4402 21.0009 20 21C22.197 21 24 19.197 24 17C24 15.52 23.175 14.223 21.97 13.53C21.985 13.37 22 13.21 22 13C22.0046 11.0505 21.4352 9.14269 20.3629 7.51452C19.2906 5.88635 17.7628 4.6098 15.97 3.844C15.883 1.72 14.143 0 12 0ZM12 2C13.116 2 14 2.884 14 4C14 5.116 13.116 6 12 6C10.884 6 10 5.116 10 4C10 2.884 10.884 2 12 2ZM8.47 5.844C9.14 7.118 10.47 8 12 8C13.53 8 14.86 7.118 15.53 5.844C16.8725 6.4959 18.004 7.51309 18.7946 8.77884C19.5853 10.0446 20.0031 11.5076 20 13C17.803 13 16 14.803 16 17C16 17.895 16.31 18.706 16.813 19.375C15.4251 20.42 13.7373 20.9899 12 21C10.2627 20.9901 8.57481 20.4202 7.187 19.375C7.71035 18.6935 7.99593 17.8593 8 17C8 14.803 6.197 13 4 13C4 9.88 5.79 7.144 8.47 5.844ZM4 15C5.116 15 6 15.884 6 17C6 18.116 5.116 19 4 19C2.884 19 2 18.116 2 17C2 15.884 2.884 15 4 15ZM20 15C21.116 15 22 15.884 22 17C22 18.116 21.116 19 20 19C18.884 19 18 18.116 18 17C18 15.884 18.884 15 20 15Z" fill="#31353B"/>
</svg>
